<?xml version="1.0" encoding="utf-8"?>
<!-- Generator: Adobe Illustrator 27.3.1, SVG Export Plug-In . SVG Version: 6.00 Build 0)  -->
<svg version="1.1" id="Warstwa_1" xmlns="http://www.w3.org/2000/svg" xmlns:xlink="http://www.w3.org/1999/xlink" x="0px" y="0px"
	 viewBox="0 0 568.09 177.19" style="enable-background:new 0 0 568.09 177.19;" xml:space="preserve">
<style type="text/css">
	.st0{fill:#3B3938;}
	.st1{fill:#FB68C2;}
</style>
<path class="st0" d="M200.6,9.99c0-0.84,0.02-1.5,0-2.17c-0.06-1.5,1.28-2.71,2.8-2.5c0.91,0.13,1.85,0.39,2.68,0.81
	c1.38,0.7,2.67,1.57,4,2.36c0.22,0.13,0.45,0.24,0.89,0.49c-0.46-1.07-0.83-1.94-1.21-2.81c-0.52-1.17-0.15-1.76,1.1-1.82
	c1.33-0.06,2.44,0.64,3.6,1.1c2.61,1.03,4.88,2.67,6.98,4.49c1.52,1.3,3,2.71,4.24,4.27c2.82,3.52,5.51,7.13,8.2,10.75
	c1.16,1.56,1.69,3.39,2.11,5.31c0.53,2.42-0.08,4.65-0.69,6.88c-0.44,1.59-1.33,3.03-1.76,4.65c-0.48,1.82-2,2.88-3.3,4.17
	c2.32,2.56,4.57,5.18,6.98,7.66c5.45,5.61,10.93,11.19,16.49,16.69c2.78,2.75,5.76,5.3,8.66,7.93c1.91,1.73,3.82,3.46,5.77,5.16
	c1.94,1.69,3.92,3.35,5.89,5c0.44,0.37,0.94,0.54,1.56,0.53c1.93-0.04,3.86-0.05,5.78,0.01c2.28,0.08,4.56,0.24,6.83,0.36
	c0.29,0.02,0.59,0,1.15,0c-1.18-1.25-2.16-2.38-3.23-3.42c-2.53-2.46-4.9-5.06-7.03-7.88c-2.12-2.81-4.12-5.69-5.9-8.74
	c-1.44-2.48-2.66-5.06-3.83-7.66c-1.09-2.43-2.09-4.9-2.65-7.53c-0.19-0.89-0.55-1.74-0.81-2.62c-0.12-0.41-0.17-0.84-0.27-1.32
	c-1.29-0.28-2.6-0.57-3.92-0.85c-1.6-0.33-2.82-1.29-3.78-2.53c-1.02-1.31-1.85-2.72-2.25-4.38c-0.37-1.53-0.76-3.05-1.09-4.59
	c-0.24-1.13-0.11-2.21-0.21-3.31c-0.11-1.15-0.06-2.33,0-3.49c0.06-1.32,0.12-2.65,0.32-3.95c0.16-1.03,0.46-2.05,0.81-3.05
	c0.6-1.74,1.18-3.49,2.16-5.07c0.77-1.24,2.11-1.7,3.59-1.52c1.52,0.18,2.75,0.79,3.8,1.81c0.09-0.07,0.14-0.08,0.16-0.12
	c1.24-1.84,2.68-2.15,4.63-0.99c2.09,1.24,3.43,3.1,4.2,5.35c0.59,1.73,1.06,3.51,1.44,5.3c0.35,1.68,0.6,3.39,0.74,5.1
	c0.25,3.03,0.02,6.07-0.57,9.04c-0.45,2.29-1.46,4.33-3.63,5.55c-1.29,0.72-2.74,0.81-4.16,1.04c-0.41,0.07-0.83,0.14-1.32,0.22
	c0.84,3.15,1.79,6.07,2.85,8.97c1.09,2.97,2.42,5.83,3.92,8.59c2.21,4.08,4.77,7.93,7.8,11.48c2.66,3.12,5.4,6.14,8.31,9.03
	c0.32,0.32,0.64,0.63,0.95,0.95c0.96,0.99,2.14,1.37,3.5,1.57c1.65,0.24,3.27,0.71,4.89,1.14c1.42,0.38,2.82,0.8,4.21,1.29
	c1.39,0.48,2.75,1.04,4.11,1.6c1.06,0.44,2.11,0.93,3.16,1.39c0.07-0.07,0.13-0.15,0.2-0.22c-0.18-0.38-0.36-0.77-0.54-1.15
	c-0.81-1.71-1.68-3.38-2.42-5.12c-0.91-2.16-1.77-4.34-2.53-6.55c-1.15-3.36-1.91-6.82-2.66-10.29c-0.56-2.6-0.78-5.24-1.13-7.86
	c-0.37-2.85-0.46-5.7-0.44-8.57c0-0.76,0.11-1.55-0.06-2.27c-0.18-0.78,0.38-1.41,0.23-2.15c-0.29-1.4,0.17-2.78,0.14-4.2
	c-0.04-1.49,0.48-2.98,0.74-4.48c0.27-1.58,0.47-3.18,0.81-4.75c0.36-1.68,0.83-3.31,0.88-5.06c0.02-0.68,0.49-1.38,0.89-1.99
	c0.18-0.27,0.69-0.32,1.27-0.55c-0.07,0.66-0.02,1.09-0.16,1.42c-1.19,2.78-0.59,5.4,0.58,8c0.71,1.59,1.3,3.23,2,4.83
	c1.11,2.53,2.27,5.03,3.4,7.55c1.55,3.43,3.09,6.86,4.64,10.28c1.12,2.47,2.3,4.92,3.39,7.4c0.74,1.69,1.35,3.43,2.06,5.13
	c0.65,1.57,1.42,3.1,2.02,4.69c0.72,1.9,1.28,3.85,1.97,5.76c1.21,3.35,2.15,6.77,2.94,10.24c0.16,0.72,0.22,1.46,0.33,2.23
	c-0.81,0.12-1.1-0.33-1.18-0.78c-0.49-2.96-1.39-5.81-2.33-8.65c-0.82-2.46-1.48-4.98-2.38-7.41c-0.92-2.5-2.06-4.91-3.09-7.37
	c-0.84-2-1.61-4.04-2.52-6.01c-1.7-3.72-3.49-7.39-5.21-11.1c-0.78-1.69-1.5-3.41-2.24-5.11c-1.27-2.9-2.56-5.78-3.82-8.69
	c-0.6-1.38-1.16-2.79-1.85-4.46c-0.33,0.62-0.62,0.96-0.69,1.34c-0.22,1.28-0.34,2.58-0.55,3.86c-0.14,0.85-0.41,1.67-0.54,2.52
	c-0.08,0.56,0.05,1.16,0,1.73c-0.39,4.46-0.47,8.93-0.27,13.41c0.08,1.65,0.1,3.31,0.24,4.96c0.08,0.95,0.35,1.88,0.52,2.81
	c0.15,0.81,0.1,1.62,0.29,2.45c0.8,3.53,1.8,7.01,2.72,10.51c0.89,3.41,2.49,6.52,3.8,9.75c0.54,1.34,1.35,2.58,2.06,3.84
	c0.56,0.98,1.39,1.68,2.35,2.29c2.53,1.6,5.17,3.08,7.51,4.93c2.12,1.68,4.02,3.67,5.8,5.72c1.89,2.17,3.57,4.52,5.26,6.85
	c0.64,0.88,1.14,1.89,1.55,2.91c0.45,1.11-0.41,2.28-1.6,2.4c-1.94,0.2-3.51-0.51-4.86-1.87c-2.46-2.47-4.52-5.27-6.66-8
	c-1.57-2-3.16-4-4.68-6.04c-1.14-1.53-2.26-3.1-3.26-4.72c-0.9-1.46-2.04-2.49-3.68-3.11c-2.06-0.78-4-1.87-6.05-2.66
	c-1.94-0.74-3.95-1.31-5.95-1.87c-1.25-0.35-2.55-0.56-4.05-0.88c0.26,0.35,0.35,0.52,0.49,0.65c0.72,0.67,1.46,1.3,2.17,1.98
	c3.96,3.75,7.89,7.52,11.88,11.24c2.87,2.68,5.8,5.28,8.72,7.91c2.38,2.14,4.78,4.28,7.2,6.38c3.22,2.8,6.44,5.62,9.72,8.34
	c0.92,0.77,2.05,1.33,3.16,1.82c2.48,1.09,4.99,2.13,7.52,3.08c3.96,1.48,7.94,2.89,11.92,4.31c1.8,0.64,3.61,1.29,5.45,1.82
	c2.18,0.63,4.4,1.14,6.6,1.69c2.63,0.65,5.26,1.31,7.89,1.93c1.28,0.3,2.59,0.47,3.86,0.77c0.53,0.12,1.3,0.02,1.4,0.87
	c-1.03,0.87-2.17,0.31-3.14,0.11c-4.1-0.85-8.18-1.86-12.25-2.87c-1.51-0.38-2.98-0.91-4.46-1.4c-4.05-1.33-8.1-2.63-12.13-4.01
	c-2.41-0.82-4.79-1.76-7.18-2.64c-0.2-0.08-0.46-0.28-0.6-0.21c-1.44,0.64-2.76-0.18-4.11-0.36c-2.37-0.31-4.7-0.85-7.06-1.28
	c-2.15-0.39-4.3-0.77-6.46-1.1c-0.99-0.15-2.01-0.15-3.02-0.25c-1.11-0.11-2.21-0.32-3.32-0.38c-1.57-0.08-3.09-0.52-4.7-0.51
	c-1.69,0.01-3.39-0.48-5.09-0.7c-1.71-0.22-3.44-0.27-5.13-0.58c-2.2-0.4-4.46-0.27-6.65-0.96c-1.61-0.51-3.37-0.57-5.03-0.92
	c-2.62-0.56-5.24-1.17-7.84-1.83c-1.96-0.49-3.93-0.98-5.83-1.66c-2.36-0.85-4.65-1.88-6.95-2.89c-1.6-0.71-3.18-1.49-4.74-2.28
	c-3.36-1.69-6.62-3.55-9.86-5.47c-3.37-2-6.8-3.91-10.16-5.92c-2.93-1.75-5.81-3.59-8.71-5.4c-4.15-2.6-8.29-5.2-12.44-7.81
	c-1.13-0.71-2.26-1.43-3.37-2.17c-1-0.66-2.07-1.01-3.28-1.01c-6.41-0.01-12.82-0.02-19.23-0.1c-1.24-0.02-2.49-0.29-3.57-1.05
	c-0.44-0.31-0.51-0.61-0.36-1.12c0.82-2.68,2.77-4,5.38-4.53c1.9-0.39,3.77-0.09,5.62,0.38c1.01,0.26,2.05,0.38,3.04,0.68
	c1.96,0.59,3.89,1.26,5.67,2.32c1,0.59,2.01,1.18,3.07,1.63c0.91,0.39,1.88,0.57,2.92,0.57c12.78,0.01,25.55,0.05,38.33,0.1
	c4.12,0.02,8.25,0.09,12.37,0.14c0.43,0,0.87,0,1.41-0.22c-1.12-0.97-2.24-1.93-3.35-2.91c-2.94-2.58-5.92-5.12-8.81-7.76
	c-3.27-2.98-6.47-6.02-9.67-9.07c-2.14-2.03-4.26-4.07-6.34-6.17c-1.82-1.84-3.58-3.75-5.35-5.65c-3.01-3.23-6.02-6.46-8.99-9.72
	c-0.47-0.52-0.85-0.67-1.49-0.35c-0.93,0.46-1.9,0.86-2.87,1.24c-2.85,1.12-5.74,1.14-8.73,0.54c-3.39-0.68-6.2-2.35-8.83-4.46
	c-2.19-1.76-3.85-3.97-5.35-6.28c-1.23-1.9-2.39-3.88-3.22-5.97c-0.81-2.05-1.28-4.25-1.64-6.43c-0.29-1.75-0.23-3.57-0.27-5.35
	c-0.04-2.06-0.09-4.11-0.01-6.17c0.04-1.08,0.32-2.16,0.95-3.09C199.1,10.4,199.63,9.88,200.6,9.99z M329.78,126.29
	c0.03,0.05,0.07,0.1,0.1,0.15c0-0.03,0.01-0.06,0-0.07C329.85,126.33,329.81,126.32,329.78,126.29c-0.26-0.21-0.51-0.42-0.76-0.64
	c-0.06,0.11-0.12,0.22-0.18,0.34C329.15,126.09,329.47,126.19,329.78,126.29z M338.52,132.17c0.36,0.11,0.71,0.21,1.07,0.32
	c0.02-0.1,0.04-0.19,0.07-0.29c-0.38-0.07-0.76-0.13-1.13-0.2c-0.41-0.26-0.8-0.56-1.23-0.76c-1.99-0.91-4.03-1.7-5.98-2.69
	c-4.13-2.09-8.25-4.2-12.3-6.43c-3.41-1.89-6.79-3.85-10.05-6c-4.15-2.74-8.21-5.63-12.23-8.56c-3.95-2.87-7.83-5.83-11.69-8.83
	c-3.27-2.54-6.47-5.17-9.66-7.81c-0.62-0.51-1.23-0.65-1.96-0.65c-2.29,0.01-4.57,0.01-6.86-0.01c-14.34-0.1-28.68-0.21-43.03-0.32
	c-0.59,0-1.18,0.04-1.77,0.06c1.61,1.29,3.26,2.29,4.89,3.34c2.99,1.92,5.93,3.93,8.95,5.79c3.59,2.22,7.25,4.33,10.89,6.48
	c4.27,2.52,8.55,5.03,12.84,7.53c1.69,0.99,3.34,2.04,5.09,2.9c3.06,1.51,6.08,3.12,9.27,4.36c1.05,0.41,2.08,0.9,3.13,1.31
	c2.28,0.88,4.62,1.55,6.98,2.16c1.73,0.45,3.47,0.88,5.22,1.27c1.66,0.37,3.33,0.7,5.01,1.01c1.29,0.24,2.58,0.47,3.87,0.65
	c1.57,0.22,3.14,0.36,4.71,0.57c2.52,0.34,5.03,0.75,7.56,1.04c2.85,0.32,5.71,0.53,8.56,0.8c0.87,0.08,1.75,0.18,2.62,0.29
	c1.21,0.15,2.43,0.32,3.64,0.48c0.91,0.12,1.83,0.22,2.73,0.37c0.76,0.12,1.52,0.32,2.28,0.45c1.68,0.29,3.35,0.56,5.03,0.83
	C336.2,131.82,337.36,131.99,338.52,132.17z M198.8,18.65c0,0-0.01,0-0.01,0c0,1.03,0.01,2.06,0,3.09c-0.02,3.18,0.43,6.3,1.44,9.29
	c0.58,1.72,1.54,3.33,2.46,4.91c2.39,4.11,5.47,7.55,9.6,10.05c1.86,1.12,3.96,1.31,5.88,2.12c2.84,0.02,5.67,0,8.28-1.34
	c2.16-1.11,4.14-2.44,5.35-4.65c1.17-2.13,1.43-4.35,0.25-6.5c-0.87-1.59-1.97-3.07-3.12-4.47c-2.32-2.83-4.97-5.34-7.99-7.43
	c-3.26-2.26-6.57-4.44-9.84-6.68c-2.98-2.04-6.46-3.21-9.39-5.37c-1.42-1.04-2.33-0.61-2.82,1.09c-0.1,0.33-0.09,0.7-0.09,1.05
	C198.79,15.43,198.8,17.04,198.8,18.65z M262.02,41.07c-0.12-0.06-0.25-0.13-0.37-0.19c0-0.44-0.04-0.88,0.01-1.31
	c0.28-2.72,0.29-5.45,0.78-8.17c0.41-2.28,0.81-4.56,1.38-6.81c0.25-0.99,0.49-1.97,0.73-2.96c0.22-0.87,0.02-1.64-0.75-2.11
	c-0.71-0.44-1.47-0.86-2.27-1.07c-1.3-0.34-2.39,0.19-3.13,1.28c-0.41,0.61-0.69,1.31-0.94,2.01c-0.83,2.34-1.62,4.7-1.79,7.22
	c-0.22,3.24-0.39,6.49,0.2,9.69c0.37,1.99,0.88,3.97,1.84,5.8c1.31,2.52,3.17,4.19,6.24,3.98c0.4-0.03,0.81,0.06,1.21,0.01
	c0.43-0.05,0.9-0.12,1.28-0.33c2.53-1.41,3.94-3.6,4.44-6.43c0.38-2.16-0.14-4.25-0.51-6.32c-0.68-3.8-2.06-7.4-3.53-10.96
	c-0.34-0.82-0.81-1.59-1.22-2.38c-0.11,0.02-0.21,0.03-0.32,0.05c-0.21,1.08-0.35,2.17-0.66,3.22c-0.8,2.73-1.14,5.54-1.56,8.33
	c-0.09,0.6-0.17,1.2-0.21,1.8c-0.13,1.69-0.22,3.39-0.37,5.08C262.49,40.71,262.19,40.88,262.02,41.07z M328.63,125.86
	c-0.25-1.06-1.06-1.51-1.72-2.09c-2.3-2.02-4.62-4.02-6.92-6.04c-1.41-1.23-2.82-2.46-4.21-3.72c-2.14-1.93-4.28-3.88-6.41-5.83
	c-2.24-2.05-4.47-4.11-6.69-6.18c-2.06-1.91-4.12-3.82-6.15-5.76c-1.49-1.42-2.91-2.91-4.4-4.32c-0.37-0.35-0.87-0.66-1.35-0.75
	c-1.43-0.26-2.87-0.51-4.31-0.58c-2.99-0.15-6-0.18-8.99-0.26c-0.23-0.01-0.47,0.06-0.9,0.12c0.45,0.34,0.73,0.53,1,0.74
	c3.38,2.7,6.56,5.64,10.12,8.11c1.82,1.27,3.52,2.7,5.28,4.05c3.94,3,7.94,5.91,12.04,8.67c3.49,2.35,7.01,4.63,10.61,6.8
	c3.78,2.28,7.67,4.35,11.59,6.37C327.67,125.44,328.16,125.64,328.63,125.86z M210.58,5.17c0.29,0.76,0.46,1.31,0.7,1.82
	c1.63,3.46,3.41,6.86,4.87,10.39c0.82,1.99,2.2,3.31,3.87,4.42c3.01,2,5.81,4.22,8.21,6.94c0.76,0.86,1.6,1.67,2.3,2.57
	c1.25,1.61,2.5,3.23,3.17,5.2c0.08,0.22,0.18,0.43,0.27,0.64c0.1-0.01,0.2-0.01,0.3-0.02c0.18-1.01,0.29-2.03,0.56-3.02
	c0.86-3.26-0.05-6.09-1.97-8.7c-1.05-1.43-2.15-2.82-3.16-4.27c-2.66-3.81-5.62-7.32-9.1-10.45C217.7,8.1,214.41,6.42,210.58,5.17z
	 M268.54,48.03c0.46,0.72,0.95,0.13,1.32,0.04c2.17-0.53,3.75-1.75,4.21-4.06c0.3-1.49,0.61-2.99,0.83-4.5
	c0.52-3.57,0.07-7.1-0.53-10.61c-0.19-1.11-0.52-2.2-0.83-3.3c-0.47-1.67-1.11-3.27-2.17-4.66c-0.85-1.12-1.93-1.93-3.33-2.25
	c-0.62-0.14-1.24-0.18-1.7,0.44c-0.39,0.53-0.36,1-0.08,1.6c0.85,1.81,1.71,3.62,2.41,5.5c1.12,3.01,2.34,5.99,2.75,9.22
	c0.16,1.26,0.47,2.5,0.55,3.76c0.07,1.1,0.11,2.28-0.19,3.32C271.21,44.62,270.3,46.61,268.54,48.03z M314.1,99.36
	c0.42,0.8,0.65,1.38,1,1.87c1.98,2.72,3.93,5.46,6,8.11c2.05,2.62,4.19,5.18,6.36,7.7c0.89,1.03,1.9,2.03,3.16,2.59
	c0.63,0.28,1.47,0.17,2.2,0.11c0.16-0.01,0.42-0.58,0.37-0.84c-0.1-0.5-0.35-0.99-0.62-1.43c-2.22-3.61-4.81-6.93-7.75-10
	C321.75,104.27,318.21,101.69,314.1,99.36z M216.86,88.45c-2.11-1.37-4.25-2.11-6.34-2.92c-1.78-0.68-3.61-1.15-5.5-1.49
	c-2.46-0.44-4.79-0.56-7.1,0.65c-0.9,0.47-1.45,1.15-1.92,1.92c-0.4,0.64-0.03,1.35,0.73,1.5c0.72,0.15,1.46,0.27,2.2,0.28
	c5.6,0.07,11.2,0.11,16.79,0.16C216.01,88.55,216.31,88.5,216.86,88.45z M201.9,6.73c-0.05,0.81-0.11,1.68-0.16,2.56
	c-0.04,0.73,0.26,1.28,0.91,1.66c1.56,0.92,3.05,1.98,4.67,2.76c2.32,1.11,4.56,2.33,6.69,3.77c0.35,0.24,0.73,0.44,1.1,0.65
	c-0.77-2.12-1.68-4.1-2.62-6.07c-0.15-0.31-0.36-0.6-0.6-0.84c-1.7-1.73-3.79-2.93-5.96-3.92C204.78,6.78,203.55,6.21,201.9,6.73z
	 M304.06,38.67c0.02-0.11,0.06-0.22,0.04-0.32c-0.01-0.04-0.13-0.06-0.2-0.09c-0.03,0.1-0.08,0.2-0.09,0.3
	C303.81,38.59,303.94,38.63,304.06,38.67z"/>
<path class="st1" d="M528.92,105.04c-0.29,0.15-0.44,0.3-0.58,0.3c-3.85,0.01-7.71,0.01-11.56,0c-0.14,0-0.28-0.16-0.57-0.34
	c0.4-0.18,0.66-0.37,0.93-0.41c2.83-0.42,3.95-2.4,4.38-4.9c0.24-1.4,0.29-2.84,0.32-4.27c0.13-6.35,0.21-12.7,0.33-19.05
	c0.02-0.94,0.11-1.87,0.19-2.81c0.07-0.85-0.18-1.61-0.67-2.27c-1.03-1.37-2.18-2.61-3.99-2.94c-0.32-0.06-0.62-0.19-0.93-0.28
	c0-0.11,0.01-0.21,0.01-0.32c0.45-0.08,0.9-0.22,1.35-0.23c2.69-0.02,5.38,0.02,8.07-0.02c0.9-0.01,1.44,0.43,1.84,1.11
	c0.81,1.39,1.61,2.79,2.37,4.21c2.1,3.9,4.19,7.8,6.25,11.72c1.29,2.44,2.5,4.92,3.79,7.35c0.58,1.09,1.29,2.11,2.02,3.3
	c0.24-0.34,0.46-0.55,0.57-0.8c2.32-5.32,4.61-10.66,6.93-15.98c1.38-3.15,2.81-6.27,4.18-9.43c0.46-1.06,1.25-1.45,2.33-1.45
	c2.38,0,4.75-0.03,7.12-0.02c0.45,0,0.89,0.14,1.34,0.22c0,0.13,0.01,0.25,0.01,0.38c-0.49,0.12-0.97,0.29-1.46,0.34
	c-2.73,0.25-4.06,1.61-3.97,4.38c0.1,3.34,0.37,6.68,0.56,10.03c0.05,0.85,0.1,1.7,0.13,2.54c0.12,3.3,0.17,6.61,0.36,9.91
	c0.14,2.4,0.38,4.8,0.72,7.18c0.23,1.58,0.84,1.97,2.46,2.08c0.59,0.04,1.26-0.14,1.7,0.43c-0.02,0.09-0.02,0.14-0.04,0.18
	c-0.02,0.04-0.06,0.09-0.09,0.09c-4.92,0.04-9.85,0.07-14.77,0.1c-0.22,0-0.44-0.05-0.66-0.1c-0.06-0.02-0.1-0.12-0.23-0.29
	c0.89-0.22,1.72-0.47,2.57-0.62c1.14-0.2,1.73-0.87,1.85-1.98c0.06-0.53,0.1-1.07,0.08-1.61c-0.1-2.86-0.22-5.72-0.35-8.57
	c-0.18-4.13-0.37-8.26-0.58-12.39c-0.06-1.1-0.21-2.19-0.46-3.32c-1.67,3.04-2.81,6.29-4.24,9.41c-1.46,3.21-2.75,6.5-4.17,9.73
	c-1.39,3.17-2.61,6.41-4.11,9.5c-0.86-0.12-1.07-0.62-1.32-1.09c-1.1-2.1-2.2-4.2-3.31-6.29c-1.74-3.28-3.49-6.54-5.22-9.83
	c-1.23-2.33-2.42-4.69-3.63-7.02c-0.78-1.5-1.58-2.98-2.54-4.79c-0.14,0.36-0.21,0.47-0.22,0.59c-0.03,0.36-0.05,0.71-0.06,1.07
	c-0.1,6.26-0.22,12.51-0.29,18.77c-0.01,1.29,0.07,2.59,0.27,3.87c0.37,2.39,1.79,3.73,4.21,4.2
	C528.39,104.66,528.58,104.84,528.92,105.04z"/>
<path class="st1" d="M334.44,67.64c0.34-0.04,0.67-0.12,1-0.12c2.64-0.01,5.29,0.04,7.93-0.01c1.17-0.02,1.97,0.42,2.53,1.42
	c1.06,1.92,2.15,3.82,3.19,5.75c1.29,2.4,2.53,4.82,3.81,7.23c1.77,3.36,3.55,6.72,5.34,10.08c0.56,1.06,1.15,2.09,1.89,3.43
	c0.3-0.66,0.48-1.03,0.64-1.41c1.43-3.27,2.87-6.53,4.3-9.8c1.85-4.21,3.69-8.41,5.54-12.61c0.41-0.94,0.84-1.87,1.25-2.81
	c0.36-0.82,0.96-1.26,1.87-1.26c2.64,0,5.29-0.02,7.93-0.01c0.27,0,0.54,0.16,0.91,0.28c-0.55,0.68-1.23,0.62-1.8,0.66
	c-1.27,0.09-2.24,0.68-2.91,1.69c-0.35,0.53-0.68,1.21-0.67,1.82c0.05,2.59,0.23,5.17,0.36,7.76c0.02,0.36,0.06,0.71,0.07,1.07
	c0.11,3.08,0.2,6.16,0.34,9.24c0.15,3.12,0.34,6.24,0.53,9.36c0.05,0.89,0.14,1.78,0.26,2.66c0.18,1.41,0.84,2.14,2.24,2.48
	c0.64,0.15,1.29,0.25,2.18,0.41c-0.38,0.22-0.54,0.39-0.71,0.39c-4.88,0-9.77-0.01-14.65-0.03c-0.16,0-0.31-0.08-0.63-0.17
	c0.58-0.61,1.21-0.59,1.8-0.6c1.95-0.04,2.8-0.77,2.8-2.9c0.01-2.1-0.17-4.19-0.27-6.29c-0.02-0.45-0.02-0.89-0.04-1.34
	c-0.2-4.64-0.38-9.28-0.6-13.92c-0.06-1.19-0.22-2.38-0.35-3.67c-0.23,0.11-0.46,0.15-0.51,0.26c-0.87,1.99-1.7,3.99-2.56,5.98
	c-0.33,0.77-0.73,1.52-1.05,2.3c-1.84,4.35-3.67,8.71-5.5,13.06c-0.83,1.98-1.61,3.98-2.46,5.94c-0.23,0.53-0.36,1.24-1.2,1.32
	c-5.05-9.63-10.1-19.24-15.15-28.86c-0.09,0.02-0.19,0.04-0.28,0.06c-0.06,0.27-0.15,0.53-0.16,0.8c-0.03,1.3-0.02,2.59-0.04,3.89
	c-0.11,5.14-0.23,10.28-0.33,15.42c-0.03,1.75,0.07,3.45,0.71,5.14c0.57,1.5,1.65,2.26,3.02,2.8c0.44,0.17,0.89,0.3,1.59,0.54
	c-0.43,0.16-0.61,0.27-0.79,0.29c-2.25,0.2-10.75,0.03-11.85-0.28c0.51-0.21,0.84-0.39,1.18-0.49c2.39-0.69,3.6-2.42,4.03-4.73
	c0.28-1.53,0.4-3.1,0.46-4.66c0.09-2.41,0.06-4.83,0.1-7.25c0.08-4.6,0.18-9.21,0.25-13.81c0.04-2.56-1.54-4.75-3.97-5.59
	c-0.5-0.17-1-0.37-1.49-0.57C334.47,67.98,334.48,67.84,334.44,67.64z"/>
<path class="st1" d="M164.29,67.58c0.64-0.01,1.28-0.02,1.91-0.02c3.04,0,6.08,0.06,9.12-0.01c3.44-0.08,6.9-0.51,10.27,0.48
	c1.06,0.31,2.1,0.76,3.06,1.31c2.99,1.72,3.46,4.38,3.02,7.4c-0.21,1.44-0.84,2.71-1.78,3.84c-0.97,1.17-1.85,2.38-3.2,3.21
	c-0.98,0.6-0.99,1.04-0.32,1.98c2.5,3.54,4.94,7.12,7.53,10.6c1.9,2.55,4.02,4.94,6.64,6.78c0.93,0.65,2.1,0.95,3.17,1.39
	c0.38,0.16,0.79,0.25,1.18,0.37c-0.01,0.09-0.01,0.19-0.02,0.28c-0.18,0.06-0.37,0.17-0.55,0.17c-3.36,0.01-6.72,0.01-10.08,0.02
	c-0.67,0-1.08-0.26-1.57-0.77c-4.27-4.48-7.34-9.78-10.51-15.02c-1.93-3.2-1.92-3.21-5.64-3.21c-0.34,0-0.69,0.07-1.11,0.11
	c0,0.61,0,1.13,0,1.66c0,3.89-0.01,7.78,0.02,11.67c0.01,0.89,0.08,1.79,0.24,2.66c0.28,1.51,0.94,1.99,2.49,2.09
	c0.62,0.04,1.34-0.2,1.91,0.45c-0.38,0.51-0.88,0.46-1.35,0.45c-1.92-0.04-3.85-0.13-5.77-0.15c-2.42-0.02-4.84,0.02-7.26,0.02
	c-0.42,0-0.85-0.03-1.4-0.06c0.31-0.68,0.77-0.53,1.11-0.55c2.38-0.17,2.99-0.46,3.2-3.4c0.19-2.67,0.07-5.36,0.07-8.05
	c0-6.89,0-13.77-0.03-20.66c0-0.88-0.08-1.78-0.33-2.62c-0.23-0.78-0.83-1.31-1.72-1.49C165.84,68.37,164.97,68.37,164.29,67.58z
	 M175.53,84.66c2.04,0,3.91,0.06,5.78-0.03c0.97-0.04,1.84-0.62,2.29-1.47c0.57-1.09,1.21-2.27,1.33-3.46
	c0.25-2.39,0.18-4.81-0.47-7.18c-0.55-1.98-1.71-3.3-3.77-3.75c-3.14-0.68-5.16,0.45-5.22,3.82c0,0.04,0,0.09,0,0.13
	c-0.02,3.53-0.04,7.06-0.05,10.58C175.42,83.72,175.48,84.11,175.53,84.66z"/>
<path class="st1" d="M429.87,104.68c0.61-0.03,1.07-0.05,1.54-0.07c1.91-0.1,2.55-0.63,2.92-2.49c0.1-0.48,0.09-0.98,0.09-1.47
	c0.01-9.49,0.01-18.97-0.01-28.46c0-0.75-0.1-1.51-0.27-2.24c-0.19-0.8-0.75-1.27-1.62-1.39c-0.86-0.12-1.71-0.35-2.57-0.77
	c0.21-0.08,0.43-0.23,0.64-0.22c2.01,0.03,4.02,0.15,6.03,0.12c2.28-0.03,4.57-0.06,6.84-0.3c2.39-0.25,4.74-0.02,7.09,0.25
	c1.19,0.14,2.39,0.36,3.54,0.71c2.56,0.78,4.89,2.06,7.04,3.66c3.58,2.68,5.48,6.3,6.45,10.65c1.1,4.96-0.05,9.44-2.38,13.64
	c-1.78,3.21-4.57,5.58-7.93,7.21c-2.66,1.29-5.49,1.81-8.4,2.14c-1.67,0.19-3.26-0.14-4.89-0.19c-2.46-0.08-4.93-0.09-7.39-0.11
	c-1.79-0.01-3.59,0.01-5.38,0C430.76,105.36,430.24,105.45,429.87,104.68z M441.13,86.29c0,4.16-0.02,8.32,0.01,12.48
	c0.01,0.89,0.08,1.79,0.28,2.65c0.28,1.18,0.94,2.06,2.22,2.42c2.96,0.82,5.85,0.66,8.64-0.57c1.89-0.83,3.59-2.02,4.77-3.74
	c0.75-1.09,1.4-2.28,1.88-3.5c0.55-1.4,1.09-2.88,1.22-4.36c0.24-2.7,0.5-5.41,0.13-8.15c-0.51-3.84-1.58-7.43-3.95-10.54
	c-1.6-2.1-3.77-3.4-6.37-3.92c-2.04-0.41-4.09-0.33-6.14-0.01c-1.42,0.22-2.14,0.82-2.45,2.23c-0.16,0.74-0.24,1.5-0.24,2.25
	C441.12,77.79,441.13,82.04,441.13,86.29z"/>
<path class="st1" d="M112.38,78.62c-0.32-0.57-0.64-1.14-0.96-1.71c-1.85-3.23-4.27-5.87-7.82-7.25c-3.58-1.39-7.23-1.61-10.86-0.21
	c-2.05,0.79-3.67,2.13-4.87,4.02c-1.57,2.48-2.32,5.17-2.66,8.06c-0.54,4.59,0.01,9.03,1.73,13.28c2.23,5.51,6.19,9.13,12.19,10.19
	c1.73,0.3,3.49,0.18,5.21-0.25c1.39-0.35,2.2-1.36,2.65-2.64c0.28-0.79,0.5-1.65,0.51-2.48c0.02-1.74-0.07-3.48-0.2-5.22
	c-0.05-0.6-0.3-1.22-0.59-1.76c-0.17-0.32-0.54-0.63-0.89-0.73c-1.06-0.3-2.1-0.69-3.25-0.56c-0.43,0.05-0.88-0.06-1.29-0.09
	c-0.26-0.65-0.05-0.92,0.55-0.92c1.12,0.01,2.24,0,3.36,0.04c1.25,0.04,2.5,0.17,3.75,0.18c2.15,0.01,4.3-0.04,6.45-0.06
	c0.25,0,0.49,0.08,1.09,0.18c-0.51,0.36-0.74,0.63-1.02,0.7c-0.96,0.24-1.34,0.95-1.34,1.79c-0.01,3.13,0,6.26,0.15,9.38
	c0.07,1.5,0.03,1.74-1.52,2c-2.34,0.39-4.67,0.79-7.01,1.19c-0.22,0.04-0.44,0.1-0.66,0.11c-2.64,0.09-5.29,0.35-7.91,0.2
	c-2.02-0.12-4-0.84-6.02-1.18c-2.48-0.41-4.4-1.97-6.37-3.26c-1.63-1.07-3.05-2.61-4.08-4.37c-1.41-2.41-2.49-4.95-2.81-7.76
	c-0.67-5.89,0.75-11.15,4.86-15.55c3.46-3.71,7.85-5.64,12.74-6.68c5.01-1.06,9.88-0.29,14.74,0.87c1.19,0.28,1.81,1,1.91,2.24
	c0.19,2.4,0.47,4.8,0.69,7.2c0.03,0.35-0.11,0.71-0.18,1.07C112.54,78.62,112.46,78.62,112.38,78.62z"/>
<path class="st1" d="M61.39,67.75c0.3-0.09,0.61-0.25,0.91-0.25c3.67-0.01,7.35,0,11.02,0.02c0.29,0,0.59,0.1,0.94,0.42
	c-0.5,0.19-0.99,0.44-1.51,0.55c-1.28,0.27-2.12,0.98-2.72,2.16c-0.79,1.56-1.12,3.2-1.13,4.91c-0.03,5.14,0,10.29-0.04,15.43
	c-0.01,1.56-0.04,3.14-0.31,4.67c-0.55,3.2-2.44,5.59-4.93,7.57c-3.67,2.91-7.9,3.32-12.34,2.74c-1.19-0.15-2.37-0.4-3.54-0.64
	c-1.34-0.28-2.4-1.13-3.5-1.87c-2.67-1.82-4.48-4.3-5.33-7.41c-0.29-1.06-0.42-2.19-0.42-3.29c-0.04-6.49-0.01-12.97-0.05-19.46
	c-0.01-1.1-0.16-2.21-0.31-3.31c-0.11-0.79-0.63-1.25-1.42-1.39c-0.7-0.13-1.41-0.24-2.11-0.38c-0.23-0.05-0.45-0.18-0.84-0.34
	c0.32-0.16,0.47-0.29,0.62-0.29c4.87-0.02,9.74-0.03,14.61-0.03c0.15,0,0.29,0.15,0.43,0.23c-0.17,0.63-0.66,0.61-1.09,0.66
	c-0.4,0.04-0.81,0.03-1.21,0.08c-1.15,0.14-1.76,0.74-1.89,1.88c-0.06,0.53-0.06,1.07-0.06,1.61c0,6.4,0.01,12.79,0,19.19
	c0,1.99,0.4,3.9,0.99,5.79c0.58,1.88,1.64,3.53,3.08,4.8c1.23,1.09,2.86,1.62,4.49,1.97c2.83,0.61,5.57,0.16,8.07-1.19
	c1.88-1.01,3.26-2.64,4.04-4.68c0.68-1.77,1.04-3.61,1.05-5.5c0.03-5.59,0.03-11.18,0-16.77c-0.01-1.52-0.26-3.02-0.96-4.41
	c-0.69-1.38-1.62-2.45-3.24-2.73c-0.43-0.07-0.83-0.24-1.25-0.36C61.43,68,61.41,67.88,61.39,67.75z"/>
<path class="st1" d="M147.02,104.98c0.79-0.22,1.36-0.37,1.94-0.54c1.01-0.3,1.2-0.5,1.11-1.52c-0.05-0.65-0.2-1.34-0.48-1.92
	c-1.92-3.89-3.89-7.75-5.85-11.63c-0.2-0.4-0.47-0.78-0.58-1.21c-0.21-0.78-0.72-0.9-1.42-0.89c-2.87,0.04-5.74,0.07-8.61,0.04
	c-0.89-0.01-1.44,0.3-1.78,1.1c-1.38,3.25-2.86,6.46-4.12,9.76c-0.37,0.98-0.28,2.2-0.15,3.29c0.11,0.88,0.72,1.62,1.55,2.1
	c1.08,0.62,2.14,1.27,3.47,1.14c0.14-0.01,0.29,0.13,0.5,0.23c-0.34,0.56-0.83,0.42-1.23,0.42c-1.88,0-3.77-0.09-5.65-0.05
	c-2.32,0.05-4.64,0.21-6.96,0.29c-0.29,0.01-0.58-0.18-0.87-0.28c0-0.12,0-0.24,0-0.37c0.4-0.12,0.79-0.3,1.19-0.35
	c1.19-0.14,2.04-0.77,2.81-1.64c1.41-1.58,2.42-3.37,3.22-5.33c0.77-1.89,1.79-3.68,2.64-5.55c1.41-3.12,2.74-6.26,4.14-9.38
	c0.67-1.5,1.46-2.94,2.16-4.43c0.72-1.53,1.39-3.09,2.11-4.62c0.88-1.89,1.76-3.79,2.67-5.66c0.45-0.93,1.13-0.96,1.67-0.03
	c0.74,1.27,1.39,2.6,2.06,3.91c2.36,4.62,4.73,9.24,7.05,13.88c1.73,3.46,3.32,6.99,5.09,10.42c1.08,2.09,2.38,4.08,3.62,6.08
	c0.65,1.05,1.63,1.76,2.76,2.27c0.29,0.13,0.55,0.31,0.96,0.54C160.97,105.42,148.03,105.38,147.02,104.98z M141.46,85.44
	c-0.16-1.37-3.6-8.2-4.55-9.07c-0.72,1.51-1.5,2.96-2.09,4.48c-0.58,1.48-1.65,2.81-1.73,4.59
	C135.96,85.44,138.67,85.44,141.46,85.44z"/>
<path class="st1" d="M428.32,105.12c-1.25,0.32-13.97,0.25-14.95-0.11c0.44-0.11,0.69-0.21,0.95-0.24c1.93-0.21,2.61-1.23,1.87-3.04
	c-0.62-1.53-1.37-3-2.1-4.48c-1.23-2.51-2.49-5.01-3.74-7.51c-0.02-0.04-0.04-0.08-0.06-0.12c-1.08-2.25-1.17-2.3-3.65-2.3
	c-2.33,0-4.66,0.03-6.99-0.02c-0.97-0.02-1.57,0.27-1.98,1.19c-1.38,3.15-2.96,6.22-4.2,9.42c-0.53,1.36-0.58,3.04,0.26,4.42
	c0.81,1.35,2.18,1.94,3.7,2.19c0.51,0.08,1.07,0,1.41,0.55c-0.83,0.31-13.4,0.34-14.49,0.01c0.34-0.19,0.57-0.42,0.83-0.45
	c1.93-0.21,3.17-1.42,4.14-2.91c0.85-1.31,1.61-2.69,2.28-4.1c1.52-3.23,2.97-6.5,4.43-9.76c1.48-3.3,2.93-6.62,4.44-9.92
	c1.17-2.56,2.41-5.1,3.61-7.65c0.34-0.73,0.61-1.49,1.01-2.19c0.2-0.35,0.59-0.81,0.91-0.83c0.32-0.01,0.77,0.41,0.96,0.76
	c0.83,1.53,1.57,3.11,2.37,4.66c1.87,3.66,3.78,7.31,5.63,10.99c0.94,1.87,1.73,3.82,2.68,5.69c1.96,3.84,3.97,7.65,5.99,11.46
	c0.93,1.76,2.12,3.27,4.16,3.86C427.92,104.75,428.04,104.9,428.32,105.12z M407.97,85.44c-0.65-2.05-3.87-8.1-4.79-8.96
	c-1.44,2.93-2.79,5.85-4.05,8.96C402.16,85.44,405.01,85.44,407.97,85.44z"/>
<path class="st1" d="M514.69,105.34c-4.69,0-9.38,0-14.07-0.01c-0.15,0-0.29-0.11-0.46-0.4c0.57-0.17,1.15-0.33,1.72-0.5
	c1.03-0.31,1.21-0.47,1.09-1.51c-0.1-0.83-0.3-1.68-0.67-2.42c-1.89-3.81-3.94-7.53-5.72-11.39c-0.71-1.53-1.53-1.95-3.14-1.83
	c-2.41,0.17-4.84,0.1-7.26,0.03c-1.01-0.03-1.59,0.33-1.97,1.22c-1.24,2.87-2.51,5.73-3.77,8.59c-0.52,1.17-0.67,2.4-0.58,3.67
	c0.09,1.15,0.6,2.08,1.56,2.68c1.12,0.7,2.27,1.38,3.7,1.21c0.14-0.02,0.31,0.11,0.71,0.28c-0.48,0.18-0.73,0.35-0.99,0.36
	c-0.94,0.04-1.88,0.02-2.82,0.02c-3.27,0.01-6.54,0.03-9.81,0.03c-0.46,0-0.91-0.07-1.37-0.11c-0.01-0.1-0.02-0.21-0.03-0.31
	c0.25-0.12,0.51-0.32,0.76-0.33c1.73-0.06,2.93-1.06,3.93-2.29c0.64-0.79,1.22-1.67,1.65-2.6c2.42-5.23,4.78-10.5,7.17-15.74
	c1.17-2.56,2.38-5.1,3.56-7.66c1.14-2.47,2.25-4.96,3.37-7.44c0.13-0.28,0.26-0.57,0.42-0.84c0.47-0.77,1.2-0.79,1.67-0.02
	c0.35,0.56,0.61,1.17,0.91,1.76c0.81,1.62,1.61,3.25,2.42,4.87c1.03,2.06,2.04,4.13,3.1,6.17c1.32,2.53,2.7,5.02,4.02,7.54
	c1.39,2.66,2.73,5.33,4.11,7.99c0.8,1.55,1.62,3.09,2.47,4.61c0.89,1.6,2.05,2.93,3.8,3.66c0.23,0.09,0.41,0.29,0.61,0.44
	C514.76,105.15,514.73,105.24,514.69,105.34z M490.21,76.38c-0.14-0.01-0.28-0.02-0.41-0.02c-1.24,2.76-2.49,5.52-3.71,8.28
	c-0.09,0.21-0.01,0.49-0.01,0.72c1.95,0.29,7.54,0.2,8.55-0.16C493.15,82.25,491.68,79.32,490.21,76.38z"/>
<path class="st1" d="M5.95,92.46c0.47,0.87,0.83,1.47,1.13,2.1c1.1,2.26,2.14,4.55,3.88,6.41c1.09,1.17,2.21,2.35,3.72,3.02
	c1.97,0.88,3.94,0.7,5.87-0.1c1.55-0.64,2.35-1.95,2.51-3.56c0.27-2.69-0.28-5.19-1.96-7.41c-0.73-0.97-1.49-1.86-2.55-2.47
	c-0.08-0.04-0.16-0.09-0.23-0.14c-2.51-2.06-5.41-3.56-7.89-5.65c-1.84-1.56-3.65-3.24-4.07-5.77c-0.79-4.74,0.19-7.18,4.13-9.88
	c1.84-1.26,4.01-1.75,6.2-2c2.69-0.31,5.37-0.01,8,0.58c0.94,0.21,1.81,0.69,2.7,1.05c0,3.39,0,6.64,0,9.88
	c-0.07,0.04-0.15,0.07-0.22,0.11c-0.24-0.28-0.55-0.52-0.71-0.84c-0.38-0.76-0.71-1.54-1.01-2.32c-0.89-2.28-2.29-4.21-4.07-5.87
	c-0.83-0.77-1.88-1.03-2.94-1.2c-2.09-0.35-4.02-0.09-5.52,1.62c-0.64,0.73-1.01,1.53-1.11,2.52c-0.33,3.17,0.8,5.7,3.34,7.58
	c2.38,1.75,4.84,3.39,7.21,5.14c1.39,1.03,2.79,2.1,4,3.34c2.55,2.6,3.31,5.79,2.41,9.29c-0.66,2.56-2.21,4.53-4.48,5.95
	c-3.7,2.3-7.67,2.75-11.87,1.93c-0.53-0.1-1.06-0.16-1.59-0.22c-1.49-0.17-2.77-0.85-4.05-1.56c-0.66-0.37-1.05-0.85-1.06-1.55
	c-0.04-3.09-0.04-6.17-0.05-9.26C5.63,93.06,5.73,92.94,5.95,92.46z"/>
<path class="st0" d="M400.87,174.51c-0.89,0-1.59,0-2.36,0c0-7.07,0-14.07,0-21.14c0.77,0,1.47,0,2.28,0c0,0.73,0,1.41,0,2.33
	c0.35-0.26,0.53-0.36,0.66-0.51c3.43-3.76,9.83-2.04,11.27,2.78c1.04,3.49-0.17,7.18-3.17,9.03c-1.94,1.19-5.51,1.41-7.47-0.62
	c-0.33-0.34-0.7-0.65-1.21-1.11C400.87,168.44,400.87,171.4,400.87,174.51z M410.75,160.64c-0.05-0.02-0.09-0.03-0.14-0.05
	c-0.05-0.49-0.07-0.98-0.16-1.46c-0.34-1.89-1.88-3.47-3.69-3.82c-2.13-0.41-4.11,0.35-5.1,2.11c-1.17,2.07-1.14,4.2,0.05,6.25
	c1.73,2.98,6.56,2.82,8.15-0.15C410.32,162.64,410.46,161.6,410.75,160.64z"/>
<path class="st0" d="M375.93,155.65c0-2.57,0-4.87,0-7.29c0.78,0,1.5,0,2.32,0c0,6.39,0,12.76,0,19.23
	c-0.41,0.04-0.75,0.09-1.09,0.1c-0.35,0.02-0.7,0-1.17,0c0-0.83,0-1.57,0-2.53c-0.7,0.59-1.23,1.02-1.75,1.46
	c-2.28,1.92-6.44,1.81-8.85-1.12c-2.02-2.46-2.15-6.71-0.65-9.14c1.68-2.71,5.26-3.9,7.91-2.81
	C373.84,154.05,374.77,154.78,375.93,155.65z M370.72,155.23c-1.28-0.08-2.57,0.48-3.48,1.7c-1.2,1.59-1.35,3.43-0.88,5.31
	c0.56,2.22,2.21,3.47,4.44,3.58c2.54,0.13,4.17-1.49,4.76-3.32c0.4-1.26,0.36-2.49-0.02-3.78
	C374.84,156.36,373.43,155.21,370.72,155.23z"/>
<path class="st0" d="M327.52,155.44c0-2.31,0-4.63,0-7.06c0.79,0,1.52,0,2.32,0c0,6.39,0,12.77,0,19.23c-0.71,0-1.4,0-2.23,0
	c-0.04-0.66-0.07-1.35-0.12-2.23c-0.33,0.25-0.56,0.4-0.76,0.58c-3.43,3.19-8.45,2.31-10.65-1.82c-1.53-2.89-1-7.29,1.71-9.44
	c1.9-1.51,3.96-2.01,6.37-1.16c1.19,0.42,2.11,1.1,3.02,1.87C327.3,155.42,327.41,155.43,327.52,155.44z M327.56,160.6
	c-0.16-0.78-0.23-1.6-0.5-2.34c-1.4-3.83-6.31-3.85-8.22-1.37c-1.37,1.79-1.54,3.93-0.76,5.86c1.73,4.27,6.65,3.62,8.29,1.25
	C327.1,162.95,327.42,161.85,327.56,160.6z"/>
<path class="st0" d="M442.87,153.36c0,3.36,0,6.53,0,9.71c0,1.47,0,2.95,0,4.53c-0.8,0-1.49,0-2.29,0c-0.04-0.7-0.08-1.43-0.13-2.36
	c-0.37,0.35-0.66,0.59-0.91,0.85c-2.02,2.11-6.02,2.6-8.53,0.48c-2.16-1.82-2.97-4.2-2.74-6.97c0.13-1.59,0.69-3.04,1.7-4.22
	c0.73-0.84,1.62-1.6,2.79-1.91c2.71-0.7,5.12-0.27,7.13,1.79c0.12,0.12,0.26,0.2,0.54,0.42c0.05-0.87,0.09-1.59,0.13-2.42
	C441.35,153.28,442.04,153.31,442.87,153.36z M435.56,155.21c-1.81-0.06-3.21,0.68-4.12,2.22c-1.11,1.87-1.05,3.84-0.14,5.74
	c1.17,2.45,4.09,3.38,6.5,2.14c1.4-0.72,2.12-1.94,2.48-3.44C440.99,158.82,439.2,155.02,435.56,155.21z"/>
<path class="st0" d="M384.07,161.46c-0.22,1.9,0.94,3.62,2.93,4.26c2.22,0.71,4.1-0.12,5.74-2.4c0.31,0,0.66-0.01,1.02,0
	c0.35,0.01,0.7,0.04,1.12,0.07c-0.22,1.55-1.2,2.53-2.31,3.32c-1.93,1.38-4.11,1.48-6.32,0.8c-2.7-0.84-4.6-3.42-4.78-6.26
	c-0.17-2.82,0.65-5.15,2.94-6.95c0.85-0.67,1.81-0.92,2.8-1.06c2.53-0.38,4.78,0.22,6.54,2.16c0.87,0.96,1.42,2.09,1.42,3.45
	c0,0.77,0.2,1.54,0.34,2.52C391.6,161.5,387.86,161.38,384.07,161.46z M392.89,159.36c0.11-3.02-2.56-4.46-4.62-4.28
	c-2.58,0.23-4.38,2.12-4.04,4.28C387.11,159.36,390,159.36,392.89,159.36z"/>
<path class="st0" d="M353.99,160.4c-0.03,6.01-5.82,9.1-10.69,6.67c-2.9-1.44-3.86-4.05-3.79-7.09c0.08-3.53,2.27-5.85,5.47-6.65
	c3.28-0.82,6.57,0.54,8.04,3.35C353.62,157.85,354.1,159.1,353.99,160.4z M346.36,165.79c3.07,0.23,5.18-1.98,5.2-4.99
	c0.01-0.7-0.13-1.4-0.27-2.09c-0.4-1.93-1.73-3-3.55-3.38c-1.99-0.42-3.76,0.09-4.95,1.85c-0.97,1.44-0.97,3.08-0.72,4.74
	C342.42,164.24,344.08,165.73,346.36,165.79z"/>
<path class="st0" d="M312.22,167.69c-0.59,0-1.07,0.01-1.56-0.01c-0.22-0.01-0.43-0.07-0.73-0.13c-0.05-0.54-0.11-1.04-0.17-1.69
	c-1.01,0.86-1.96,1.62-3.23,1.9c-3.38,0.75-6.08-1.23-7.02-4.16c-0.05-0.16-0.1-0.34-0.1-0.5c-0.01-3.22,0-6.43,0-9.75
	c0.74,0,1.47,0,2.29,0c0.03,0.45,0.06,0.84,0.07,1.23c0.02,2.59,0.01,5.19,0.05,7.78c0.03,1.76,1.51,3.28,3.27,3.41
	c2.79,0.21,4.21-0.89,4.65-3.64c0.1-0.61,0.1-1.25,0.1-1.87c0.01-2.27,0-4.54,0-6.89c0.86,0,1.59,0,2.4,0
	C312.22,158.12,312.22,162.8,312.22,167.69z"/>
<path class="st0" d="M459.46,157.95c-0.61,0-1.1-0.02-1.59,0.01c-0.65,0.04-0.94-0.16-1.22-0.86c-0.56-1.34-1.86-1.88-3.24-1.96
	c-1.67-0.1-3.66,0.61-4.47,2.75c-0.68,1.81-0.71,3.58-0.01,5.37c1.19,3.06,4.95,3.17,6.72,1.85c0.56-0.42,0.91-1.14,1.5-1.92
	c0.54,0,1.37,0,2.21,0c0.01,1.9-2.19,3.97-4.35,4.48c-2.49,0.58-4.81,0.17-6.78-1.47c-0.65-0.53-1.07-1.4-1.45-2.18
	c-0.99-2.02-1.03-4.22-0.37-6.27c0.76-2.37,2.55-3.91,5.04-4.46c1.75-0.38,3.45-0.03,5.06,0.67
	C458.1,154.65,459.14,156.11,459.46,157.95z"/>
<path class="st0" d="M275.23,163.49c0.7,0,1.36,0,2.09,0c0.01,0.01,0.12,0.05,0.14,0.12c0.27,0.95,0.8,1.85,1.71,2.08
	c1.13,0.29,2.38,0.42,3.52-0.2c1.44-0.78,1.56-2.4,0.12-3.15c-1.01-0.53-2.16-0.84-3.29-1.1c-1.17-0.27-2.11-0.86-3.01-1.58
	c-2.06-1.65-1.03-5.25,1.18-6.02c2.03-0.71,3.93-0.52,5.8,0.17c1.55,0.57,2.13,2,2.47,3.63c-0.81,0-1.51,0-2.18,0
	c-1.13-2.05-2.51-2.74-4.37-2.17c-0.41,0.13-0.84,0.35-1.15,0.64c-0.96,0.9-0.91,1.78,0.15,2.54c0.6,0.43,1.22,0.8,1.99,0.98
	c1.45,0.33,2.87,0.75,4.09,1.73c0.77,0.62,1.33,1.37,1.53,2.22c0.29,1.23-0.26,2.36-1.21,3.18c-1.53,1.34-3.38,1.53-5.3,1.2
	c-1.6-0.27-2.94-0.98-3.89-2.38C275.25,164.83,275.08,164.32,275.23,163.49z"/>
<path class="st0" d="M290.2,155.32c-0.61-0.03-1.1-0.05-1.7-0.08c0-0.6,0-1.19,0-1.86c0.54-0.05,1.1-0.11,1.83-0.18
	c0-1.18,0-2.31,0-3.48c0.84,0,1.5,0,2.29,0c0,1.13,0,2.22,0,3.43c1.3,0.06,2.48,0.12,3.75,0.18c0,0.68,0,1.27,0,1.97
	c-1.21,0-2.36,0-3.58,0c-0.04,0.4-0.09,0.69-0.09,0.99c-0.01,2.37-0.02,4.73,0,7.1c0.01,1.8,0.51,2.29,2.32,2.35
	c0.44,0.01,0.87,0.04,1.38,0.07c0,0.63,0,1.19,0,1.82c-1.26,0.15-2.44,0.07-3.62-0.21c-1.41-0.33-2.13-1.27-2.28-2.63
	c-0.12-1.06-0.13-2.14-0.15-3.21c-0.03-1.87-0.03-3.75-0.05-5.62C290.28,155.77,290.24,155.6,290.2,155.32z"/>
<path class="st0" d="M463.14,153.26c0.86,0.05,1.57,0.08,2.35,0.13c0,1.23,0,2.38,0,3.53c-0.02,4.24-0.01,8.48-0.07,12.72
	c-0.01,0.96-0.14,1.93-0.38,2.86c-0.22,0.84-0.84,1.5-1.72,1.71c-0.93,0.22-1.9,0.29-2.98,0.44c0-0.76,0-1.32,0-2.05
	c0.38-0.03,0.81-0.04,1.23-0.09c0.98-0.13,1.3-0.42,1.44-1.4c0.09-0.62,0.12-1.24,0.13-1.87c0.01-4.82,0.01-9.64,0-14.46
	C463.14,154.33,463.14,153.89,463.14,153.26z"/>
<path class="st0" d="M424.97,167.64c-0.76,0-1.42,0-2.07,0c-0.31-1.48-0.45-15.02-0.19-19.24c0.72,0,1.45,0,2.26,0
	C424.97,154.74,424.97,161.11,424.97,167.64z"/>
<path class="st0" d="M469.47,153.38c0.88,0,1.57,0,2.32,0c0,4.76,0,9.43,0,14.21c-0.7,0-1.38,0-2.22,0
	C469.38,162.91,469.54,158.21,469.47,153.38z"/>
<path class="st0" d="M416.28,153.32c0.83,0,1.52,0,2.24,0c0,4.82,0,9.53,0,14.33c-0.37,0.02-0.67,0.04-0.97,0.04
	c-0.39,0.01-0.79,0-1.27,0C416.28,162.87,416.28,158.16,416.28,153.32z"/>
<path class="st0" d="M336.22,167.64c-0.76,0-1.41,0-2.2,0c0-4.73,0-9.43,0-14.27c0.69,0,1.42,0,2.2,0
	C336.22,158.14,336.22,162.81,336.22,167.64z"/>
<path class="st0" d="M462.65,149.25c0-0.77,0.74-1.48,1.53-1.48c0.96,0,1.64,0.62,1.66,1.52c0.03,1-0.66,1.66-1.78,1.7
	C463.38,151.03,462.65,150.13,462.65,149.25z"/>
<path class="st0" d="M472.07,149.28c0.01,0.92-0.56,1.67-1.3,1.71c-0.87,0.05-1.68-0.77-1.67-1.68c0.01-0.79,0.73-1.54,1.52-1.56
	C471.51,147.73,472.06,148.31,472.07,149.28z"/>
<path class="st0" d="M417.38,150.73c-0.93,0-1.51-0.55-1.53-1.44c-0.02-0.99,0.47-1.52,1.39-1.52c0.96,0,1.56,0.58,1.56,1.53
	C418.82,150.4,418.48,150.73,417.38,150.73z"/>
<path class="st0" d="M336.5,149.37c-0.02,0.89-0.76,1.68-1.54,1.63c-0.7-0.05-1.47-1.02-1.43-1.81c0.04-0.75,0.84-1.46,1.62-1.41
	C336.04,147.83,336.52,148.38,336.5,149.37z"/>
<path class="st1" d="M327.52,155.44c-0.11-0.01-0.22-0.02-0.33-0.03C327.3,155.42,327.41,155.43,327.52,155.44z"/>
</svg>
